<svg xmlns="http://www.w3.org/2000/svg" width="32" height="40" fill="none" viewBox="0 0 32 40"><path stroke="#999" stroke-width="2" d="M1.59518 10.3571L10.4929 1.57645C10.8672 1.20709 11.3718 1 11.8977 1H28C29.6569 1 31 2.34315 31 4V36C31 37.6569 29.6569 39 28 39H4C2.34315 39 1 37.6569 1 36V11.7806C1 11.2456 1.21437 10.7329 1.59518 10.3571Z"/><path stroke="#999" stroke-width="2" d="M11 2V11C11 11.5523 10.5523 12 10 12H2"/><rect width="15" height="1" x="8.5" y="18.5" stroke="#999" rx=".5"/><rect width="15" height="1" x="8.5" y="26.5" stroke="#999" rx=".5"/><rect width="15" height="1" x="8.5" y="22.5" stroke="#999" rx=".5"/><rect width="11" height="1" x="8.5" y="30.5" stroke="#999" rx=".5"/></svg>