<svg xmlns="http://www.w3.org/2000/svg" width="152" height="207" fill="none" viewBox="0 0 152 207"><g opacity=".08"><ellipse fill="#166DE0" rx="2.951" ry="2.951" transform="matrix(-0.742946 0.669351 -0.742946 -0.669351 136.904 24.4922)"/><ellipse fill="#166DE0" rx="2.951" ry="2.951" transform="matrix(-0.742946 0.669351 -0.742946 -0.669351 114.976 4.73633)"/><ellipse fill="#166DE0" rx="2.951" ry="2.951" transform="matrix(-0.742946 0.669351 -0.742946 -0.669351 136.904 64.0039)"/><ellipse fill="#166DE0" rx="2.951" ry="2.951" transform="matrix(-0.742946 0.669351 -0.742946 -0.669351 114.976 44.2481)"/><ellipse fill="#166DE0" rx="2.951" ry="2.951" transform="matrix(-0.742946 0.669351 -0.742946 -0.669351 93.0483 24.4922)"/><circle r="2.951" fill="#166DE0" transform="matrix(-0.742946 0.669351 -0.742946 -0.669351 136.904 103.515)"/><ellipse fill="#166DE0" rx="2.951" ry="2.951" transform="matrix(-0.742946 0.669351 -0.742946 -0.669351 114.976 83.7588)"/><ellipse fill="#166DE0" rx="2.951" ry="2.951" transform="matrix(-0.742946 0.669351 -0.742946 -0.669351 93.0483 64.0039)"/><circle r="2.951" fill="#166DE0" transform="matrix(-0.742946 0.669351 -0.742946 -0.669351 71.1206 44.248)"/><ellipse fill="#166DE0" rx="2.951" ry="2.951" transform="matrix(-0.742946 0.669351 -0.742946 -0.669351 136.904 143.025)"/><ellipse fill="#166DE0" rx="2.951" ry="2.951" transform="matrix(-0.742946 0.669351 -0.742946 -0.669351 114.976 123.271)"/><circle r="2.951" fill="#166DE0" transform="matrix(-0.742946 0.669351 -0.742946 -0.669351 93.0483 103.515)"/><ellipse fill="#166DE0" rx="2.951" ry="2.951" transform="matrix(-0.742946 0.669351 -0.742946 -0.669351 71.1206 83.7588)"/><ellipse fill="#166DE0" rx="2.951" ry="2.951" transform="matrix(-0.742946 0.669351 -0.742946 -0.669351 49.1928 64.0039)"/><ellipse fill="#166DE0" rx="2.951" ry="2.951" transform="matrix(-0.742946 0.669351 -0.742946 -0.669351 136.904 182.537)"/><ellipse fill="#166DE0" rx="2.951" ry="2.951" transform="matrix(-0.742946 0.669351 -0.742946 -0.669351 114.976 162.781)"/><ellipse fill="#166DE0" rx="2.951" ry="2.951" transform="matrix(-0.742946 0.669351 -0.742946 -0.669351 93.0483 143.025)"/><ellipse fill="#166DE0" rx="2.951" ry="2.951" transform="matrix(-0.742946 0.669351 -0.742946 -0.669351 71.1206 123.271)"/><circle r="2.951" fill="#166DE0" transform="matrix(-0.742946 0.669351 -0.742946 -0.669351 49.1928 103.515)"/><ellipse fill="#166DE0" rx="2.951" ry="2.951" transform="matrix(-0.742946 0.669351 -0.742946 -0.669351 27.2653 83.7588)"/><ellipse fill="#166DE0" rx="2.951" ry="2.951" transform="matrix(-0.742946 0.669351 -0.742946 -0.669351 114.976 202.293)"/><ellipse fill="#166DE0" rx="2.951" ry="2.951" transform="matrix(-0.742946 0.669351 -0.742946 -0.669351 93.0483 182.537)"/><ellipse fill="#166DE0" rx="2.951" ry="2.951" transform="matrix(-0.742946 0.669351 -0.742946 -0.669351 71.1206 162.781)"/><ellipse fill="#166DE0" rx="2.951" ry="2.951" transform="matrix(-0.742946 0.669351 -0.742946 -0.669351 49.1928 143.025)"/><ellipse fill="#166DE0" rx="2.951" ry="2.951" transform="matrix(-0.742946 0.669351 -0.742946 -0.669351 27.2653 123.271)"/><circle r="2.951" fill="#166DE0" transform="matrix(-0.742946 0.669351 -0.742946 -0.669351 5.3376 103.515)"/></g></svg>