<svg xmlns="http://www.w3.org/2000/svg" width="168" height="119" fill="none" viewBox="0 0 168 119"><g clip-path="url(#clip0)"><g filter="url(#filter0_f)"><path fill="#3D3C40" fill-opacity=".08" fill-rule="evenodd" d="M139.733 5.42926C139.735 5.01776 139.66 4.60987 139.513 4.22887C139.366 3.84788 139.149 3.50125 138.875 3.20881C138.601 2.91637 138.275 2.68385 137.916 2.52453C137.557 2.3652 137.171 2.2822 136.782 2.28027H5.10946C4.32286 2.28473 3.57012 2.61893 3.01672 3.20942C2.46331 3.79992 2.15452 4.59837 2.15824 5.42926V88.9347H2.1582V98.8093C2.1582 99.6361 2.46914 100.429 3.0226 101.014C3.57606 101.598 4.32671 101.927 5.10942 101.927H54.3636L52.883 115.387H88.4981L86.5519 101.927H135.553C138.33 101.929 139.735 100.734 139.733 97.6002C139.733 97.2695 139.733 91.823 139.733 89.7379V5.42926Z" clip-rule="evenodd"/></g><path fill="#3D3C40" fill-opacity=".08" d="M68.8594 119C104.148 119 132.756 117.964 132.756 116.687C132.756 115.409 104.148 114.374 68.8594 114.374C33.5703 114.374 4.96289 115.409 4.96289 116.687C4.96289 117.964 33.5703 119 68.8594 119Z"/><path fill="#3D3C40" d="M86.8617 115.607H69.1304L51.3633 115.367L51.469 114.404H86.6862L86.8617 115.607Z" opacity=".1"/><path fill="#fff" d="M86.8956 115.847L51.3633 115.367L51.469 114.404L53.1859 98.5244H84.391L86.6862 114.404L86.8617 115.607L86.8956 115.847Z"/><path fill="#fff" d="M137.575 3.14899C137.577 2.73749 137.502 2.32959 137.355 1.9486C137.208 1.5676 136.991 1.22098 136.717 0.92854C136.443 0.636101 136.117 0.403577 135.758 0.244254C135.398 0.0849298 135.013 0.00193115 134.624 0H2.95125C2.16465 0.00445797 1.41192 0.338659 0.858514 0.929151C0.305108 1.51964 -0.0036787 2.31809 3.30799e-05 3.14899V87.4577H137.575V3.14899Z"/><path fill="#3D3C40" fill-opacity=".24" d="M86.8956 115.847L51.3633 115.367L51.469 114.404L53.1859 98.5244H84.391L86.6862 114.404L86.8617 115.607L86.8956 115.847Z"/><path fill="#fff" d="M92.5912 114.645H45.4414V115.847H92.5912V114.645Z"/><path fill="#3D3C40" fill-opacity=".24" d="M92.5912 114.645H45.4414V115.847H92.5912V114.645Z"/><path fill="#3D3C40" d="M72.5469 99.6069L86.7227 114.644L84.5472 99.6069H72.5469Z" opacity=".1"/><path fill="#3D3C40" fill-opacity=".72" d="M137.575 3.14899C137.577 2.73749 137.502 2.32959 137.355 1.9486C137.208 1.5676 136.991 1.22098 136.717 0.92854C136.443 0.636101 136.117 0.403577 135.758 0.244254C135.398 0.0849298 135.013 0.00193115 134.624 0H2.95125C2.16465 0.00445797 1.41192 0.338659 0.858514 0.929151C0.305108 1.51964 -0.0036787 2.31809 3.30799e-05 3.14899V87.4577H137.575V3.14899Z"/><path fill="#fff" d="M0 86.6152V96.4898C0 97.3166 0.310932 98.1095 0.864393 98.6941C1.41785 99.2788 2.16851 99.6072 2.95122 99.6072H134.624C135.011 99.6075 135.395 99.527 135.753 99.3705C136.111 99.2139 136.437 98.9843 136.711 98.6947C136.985 98.4052 137.202 98.0614 137.351 97.6831C137.499 97.3048 137.575 96.8993 137.575 96.4898V86.6152H0Z"/><path fill="#3D3C40" fill-opacity=".24" d="M0 86.6543V96.5289C0 97.3556 0.310932 98.1486 0.864393 98.7332C1.41785 99.3178 2.16851 99.6463 2.95122 99.6463H134.624C135.011 99.6465 135.395 99.5661 135.753 99.4095C136.111 99.2529 136.437 99.0233 136.711 98.7338C136.985 98.4443 137.202 98.1005 137.351 97.7222C137.499 97.3438 137.575 96.9383 137.575 96.5289V86.6543H0Z"/><path fill="#fff" d="M132.564 5.29346H5.69531V81.082H132.564V5.29346Z"/><ellipse cx="68.857" cy="93.268" fill="#3D3C40" fill-opacity=".16" rx="3.238" ry="3.421"/><g filter="url(#filter1_f)"><path fill="#3D3C40" fill-opacity=".16" fill-rule="evenodd" d="M130.426 38.8369H159.092C161.156 38.8369 162.829 40.5963 162.829 42.7667V56.3576H162.864C163.119 56.3576 163.325 56.5749 163.325 56.843V65.2345C163.325 65.5026 163.119 65.7199 162.864 65.7199H162.829V112.139C162.829 114.31 161.156 116.069 159.092 116.069H130.426C128.362 116.069 126.689 114.31 126.689 112.139V67.3169C126.68 67.3177 126.67 67.3182 126.661 67.3182H126.659C126.48 67.3182 126.334 67.1654 126.334 66.9769V62.248C126.334 62.0596 126.48 61.9068 126.659 61.9068H126.661C126.67 61.9068 126.68 61.9072 126.689 61.9081V60.0302C126.682 60.0307 126.674 60.031 126.667 60.031H126.665C126.477 60.031 126.324 59.8706 126.324 59.6728V55.0245C126.324 54.8266 126.477 54.6662 126.665 54.6662H126.667C126.674 54.6662 126.682 54.6665 126.689 54.667V42.7667C126.689 40.5963 128.362 38.8369 130.426 38.8369Z" clip-rule="evenodd"/></g><path fill="#fff" fill-rule="evenodd" d="M130.426 39.5327H159.092C161.156 39.5327 162.829 41.2921 162.829 43.4625V57.0534H162.864C163.119 57.0534 163.325 57.2707 163.325 57.5388V65.9304C163.325 66.1984 163.119 66.4157 162.864 66.4157H162.829V112.835C162.829 115.006 161.156 116.765 159.092 116.765H130.426C128.362 116.765 126.689 115.006 126.689 112.835V68.0127C126.68 68.0135 126.67 68.0139 126.661 68.0139H126.659C126.48 68.0139 126.334 67.8612 126.334 67.6727V62.9438C126.334 62.7554 126.48 62.6026 126.659 62.6026H126.661C126.67 62.6026 126.68 62.603 126.689 62.6039V60.726C126.682 60.7265 126.674 60.7268 126.667 60.7268H126.665C126.477 60.7268 126.324 60.5664 126.324 60.3686V55.7203C126.324 55.5224 126.477 55.362 126.665 55.362H126.667C126.674 55.362 126.682 55.3623 126.689 55.3628V43.4625C126.689 41.2921 128.362 39.5327 130.426 39.5327Z" clip-rule="evenodd"/><path fill="#3D3C40" fill-opacity=".72" fill-rule="evenodd" d="M130.426 39.5327H159.092C161.156 39.5327 162.829 41.2921 162.829 43.4625V57.0534H162.864C163.119 57.0534 163.325 57.2707 163.325 57.5388V65.9304C163.325 66.1984 163.119 66.4157 162.864 66.4157H162.829V112.835C162.829 115.006 161.156 116.765 159.092 116.765H130.426C128.362 116.765 126.689 115.006 126.689 112.835V68.0127C126.68 68.0135 126.67 68.0139 126.661 68.0139H126.659C126.48 68.0139 126.334 67.8612 126.334 67.6727V62.9438C126.334 62.7554 126.48 62.6026 126.659 62.6026H126.661C126.67 62.6026 126.68 62.603 126.689 62.6039V60.726C126.682 60.7265 126.674 60.7268 126.667 60.7268H126.665C126.477 60.7268 126.324 60.5664 126.324 60.3686V55.7203C126.324 55.5224 126.477 55.362 126.665 55.362H126.667C126.674 55.362 126.682 55.3623 126.689 55.3628V43.4625C126.689 41.2921 128.362 39.5327 130.426 39.5327Z" clip-rule="evenodd"/><path fill="#E6E8EC" d="M145.809 41.8389H141.785C141.503 41.8389 141.273 42.0799 141.273 42.3772C141.273 42.6746 141.503 42.9156 141.785 42.9156H145.809C146.092 42.9156 146.321 42.6746 146.321 42.3772C146.321 42.0799 146.092 41.8389 145.809 41.8389Z"/><path fill="#E6E8EC" d="M147.663 42.9899C147.983 42.9899 148.243 42.7166 148.243 42.3795C148.243 42.0424 147.983 41.769 147.663 41.769C147.342 41.769 147.082 42.0424 147.082 42.3795C147.082 42.7166 147.342 42.9899 147.663 42.9899Z"/><path fill="#fff" d="M157.725 41.5464H153.589V42.0699C153.588 42.7279 153.34 43.3588 152.897 43.8244C152.455 44.29 151.856 44.5524 151.23 44.5541H138.035C137.408 44.5541 136.807 44.2922 136.363 43.8259C135.92 43.3596 135.671 42.7272 135.671 42.0678V41.5464H131.79C131.029 41.5469 130.299 41.8651 129.761 42.4311C129.223 42.997 128.92 43.7644 128.92 44.5647V111.735C128.92 112.132 128.994 112.524 129.138 112.89C129.283 113.256 129.494 113.589 129.761 113.869C130.027 114.15 130.344 114.372 130.692 114.524C131.04 114.675 131.413 114.754 131.79 114.754H157.725C158.102 114.754 158.475 114.676 158.824 114.524C159.172 114.373 159.489 114.15 159.755 113.87C160.022 113.59 160.233 113.257 160.377 112.891C160.522 112.524 160.596 112.132 160.595 111.735V44.5626C160.595 43.7625 160.292 42.9953 159.754 42.4297C159.216 41.8641 158.486 41.5464 157.725 41.5464Z"/><path fill="#3D3C40" fill-opacity=".08" d="M144.849 119C157.634 119 167.998 118.065 167.998 116.912C167.998 115.759 157.634 114.824 144.849 114.824C132.064 114.824 121.699 115.759 121.699 116.912C121.699 118.065 132.064 119 144.849 119Z"/><path fill="#fff" fill-rule="evenodd" d="M130.432 39.6665H159.098C161.162 39.6665 162.835 41.4259 162.835 43.5963V57.1872H162.87C163.124 57.1872 163.331 57.4045 163.331 57.6726V66.0641C163.331 66.3322 163.124 66.5495 162.87 66.5495H162.835V112.969C162.835 115.139 161.162 116.899 159.098 116.899H130.432C128.368 116.899 126.695 115.139 126.695 112.969V68.1464C126.686 68.1473 126.676 68.1477 126.667 68.1477H126.665C126.485 68.1477 126.34 67.9949 126.34 67.8065V63.0776C126.34 62.8892 126.485 62.7364 126.665 62.7364H126.667C126.676 62.7364 126.686 62.7368 126.695 62.7377V60.8598C126.688 60.8603 126.68 60.8606 126.673 60.8606H126.671C126.483 60.8606 126.33 60.7002 126.33 60.5023V55.854C126.33 55.6562 126.483 55.4958 126.671 55.4958H126.673C126.68 55.4958 126.688 55.4961 126.695 55.4966V43.5963C126.695 41.4259 128.368 39.6665 130.432 39.6665Z" clip-rule="evenodd"/><path fill="#3D3C40" fill-opacity=".72" fill-rule="evenodd" d="M130.432 39.6665H159.098C161.162 39.6665 162.835 41.4259 162.835 43.5963V57.1872H162.87C163.124 57.1872 163.331 57.4045 163.331 57.6726V66.0641C163.331 66.3322 163.124 66.5495 162.87 66.5495H162.835V112.969C162.835 115.139 161.162 116.899 159.098 116.899H130.432C128.368 116.899 126.695 115.139 126.695 112.969V68.1464C126.686 68.1473 126.676 68.1477 126.667 68.1477H126.665C126.485 68.1477 126.34 67.9949 126.34 67.8065V63.0776C126.34 62.8892 126.485 62.7364 126.665 62.7364H126.667C126.676 62.7364 126.686 62.7368 126.695 62.7377V60.8598C126.688 60.8603 126.68 60.8606 126.673 60.8606H126.671C126.483 60.8606 126.33 60.7002 126.33 60.5023V55.854C126.33 55.6562 126.483 55.4958 126.671 55.4958H126.673C126.68 55.4958 126.688 55.4961 126.695 55.4966V43.5963C126.695 41.4259 128.368 39.6665 130.432 39.6665Z" clip-rule="evenodd"/><path fill="#E6E8EC" d="M145.815 41.9727H141.791C141.509 41.9727 141.279 42.2137 141.279 42.511C141.279 42.8084 141.509 43.0494 141.791 43.0494H145.815C146.098 43.0494 146.327 42.8084 146.327 42.511C146.327 42.2137 146.098 41.9727 145.815 41.9727Z"/><path fill="#E6E8EC" d="M147.668 43.1237C147.989 43.1237 148.249 42.8504 148.249 42.5133C148.249 42.1761 147.989 41.9028 147.668 41.9028C147.348 41.9028 147.088 42.1761 147.088 42.5133C147.088 42.8504 147.348 43.1237 147.668 43.1237Z"/><path fill="#fff" d="M157.731 41.6802H153.594V42.2037C153.594 42.8617 153.345 43.4926 152.903 43.9582C152.461 44.4238 151.862 44.6862 151.236 44.6879H138.041C137.414 44.6879 136.812 44.426 136.369 43.9597C135.926 43.4934 135.677 42.861 135.677 42.2016V41.6802H131.796C131.035 41.6807 130.305 41.9989 129.767 42.5648C129.229 43.1308 128.926 43.8982 128.926 44.6985V111.869C128.926 112.265 129 112.658 129.144 113.024C129.289 113.39 129.5 113.723 129.767 114.003C130.033 114.284 130.349 114.506 130.698 114.658C131.046 114.809 131.419 114.887 131.796 114.887H157.731C158.108 114.888 158.481 114.81 158.83 114.658C159.178 114.507 159.494 114.284 159.761 114.004C160.028 113.724 160.239 113.391 160.383 113.024C160.527 112.658 160.601 112.265 160.601 111.869V44.6964C160.601 43.8962 160.298 43.1291 159.76 42.5635C159.222 41.9979 158.492 41.6802 157.731 41.6802Z"/><g clip-path="url(#clip1)"><rect width="26.457" height="76.55" x="5.291" y="10.439" fill="#145DBF"/><rect width="26.457" height="7.655" x="5.291" y="10.439" fill="#1153AB"/><rect width="101.197" height="7.655" x="31.748" y="10.439" fill="#fff"/><line x1="31.748" x2="132.945" y1="17.594" y2="17.594" stroke="#3D3C40" stroke-opacity=".16"/><ellipse cx="9.26" cy="14.614" fill="#fff" opacity=".32" rx="1.984" ry="2.088"/><rect width="16.535" height="2.088" x="13.229" y="12.526" fill="#fff" opacity=".32" rx="1.044"/><rect width="20.504" height="1.392" x="8.598" y="21.573" fill="#fff" opacity=".32" rx=".696"/><rect width="13.228" height="1.392" x="8.598" y="25.748" fill="#fff" opacity=".32" rx=".696"/><rect width="19.181" height="1.392" x="8.598" y="29.924" fill="#fff" opacity=".32" rx=".696"/><rect width="15.213" height="1.392" x="8.598" y="34.1" fill="#fff" opacity=".32" rx=".696"/><rect width="20.504" height="1.392" x="8.598" y="38.275" fill="#fff" opacity=".32" rx=".696"/><rect width="9.921" height="1.392" x="8.598" y="42.451" fill="#fff" opacity=".32" rx=".696"/><rect width="20.504" height="1.392" x="8.598" y="46.626" fill="#fff" opacity=".32" rx=".696"/><rect width="15.213" height="1.392" x="8.598" y="50.801" fill="#fff" opacity=".32" rx=".696"/><rect width="16.535" height=".696" x="13.229" y="16.006" fill="#fff" opacity=".32" rx=".348"/><rect width="16.535" height="1.392" x="35.055" y="13.223" fill="#3D3C40" fill-opacity=".24" rx=".696"/><ellipse cx="37.039" cy="22.965" fill="#3D3C40" fill-opacity=".24" rx="1.984" ry="2.088"/><rect width="16.535" height="1.392" x="41.008" y="22.269" fill="#3D3C40" fill-opacity=".24" rx=".696"/><rect width="58.205" height="1.392" x="41.008" y="25.053" fill="#3D3C40" fill-opacity=".24" rx=".696"/><rect width="47.622" height="1.392" x="41.008" y="27.836" fill="#3D3C40" fill-opacity=".24" rx=".696"/><ellipse cx="37.039" cy="34.796" fill="#3D3C40" fill-opacity=".24" rx="1.984" ry="2.088"/><rect width="16.535" height="1.392" x="41.008" y="34.1" fill="#3D3C40" fill-opacity=".24" rx=".696"/><rect width="58.205" height="1.392" x="41.008" y="36.883" fill="#3D3C40" fill-opacity=".24" rx=".696"/><rect width="47.622" height="1.392" x="41.008" y="39.667" fill="#3D3C40" fill-opacity=".24" rx=".696"/><ellipse cx="37.039" cy="46.626" fill="#3D3C40" fill-opacity=".24" rx="1.984" ry="2.088"/><rect width="16.535" height="1.392" x="41.008" y="45.93" fill="#3D3C40" fill-opacity=".24" rx=".696"/><rect width="58.205" height="1.392" x="41.008" y="48.713" fill="#3D3C40" fill-opacity=".24" rx=".696"/><rect width="47.622" height="1.392" x="41.008" y="51.497" fill="#3D3C40" fill-opacity=".24" rx=".696"/><ellipse cx="37.039" cy="58.456" fill="#3D3C40" fill-opacity=".24" rx="1.984" ry="2.088"/><rect width="16.535" height="1.392" x="41.008" y="57.76" fill="#3D3C40" fill-opacity=".24" rx=".696"/><rect width="58.205" height="1.392" x="41.008" y="60.544" fill="#3D3C40" fill-opacity=".24" rx=".696"/><rect width="47.622" height="1.392" x="41.008" y="63.328" fill="#3D3C40" fill-opacity=".24" rx=".696"/><rect width="17.858" height="2.784" x="101.857" y="12.526" fill="#3D3C40" fill-opacity=".16" rx="1.392"/><rect width="2.646" height="2.784" x="122.361" y="12.526" fill="#3D3C40" fill-opacity=".16" rx="1.323"/><rect width="2.646" height="2.784" x="127.652" y="12.526" fill="#3D3C40" fill-opacity=".16" rx="1.323"/><rect width="2.646" height="2.784" x="96.566" y="12.526" fill="#3D3C40" fill-opacity=".16" rx="1.323"/><rect width="2.646" height="2.784" x="91.275" y="12.526" fill="#3D3C40" fill-opacity=".16" rx="1.323"/><rect width="127.654" height="5.567" x="5.291" y="4.872" fill="#3D3C40" fill-opacity=".08"/><ellipse cx="8.268" cy="8.003" fill="#F74343" rx=".992" ry="1.044"/><ellipse cx="12.236" cy="8.003" fill="#FFBC42" rx=".992" ry="1.044"/><ellipse cx="16.205" cy="8.003" fill="#06D6A0" rx=".992" ry="1.044"/><rect width="94.583" height="4.871" x="34.393" y="73.07" fill="#3D3C40" fill-opacity=".16" rx="2"/></g><mask id="mask0" width="33" height="74" x="128" y="41" mask-type="alpha" maskUnits="userSpaceOnUse"><path fill="#fff" d="M157.782 41.7544H153.645V42.2779C153.645 42.9359 153.396 43.5668 152.954 44.0324C152.512 44.498 151.913 44.7604 151.287 44.7621H138.092C137.465 44.7621 136.863 44.5002 136.42 44.0339C135.976 43.5676 135.727 42.9352 135.727 42.2758V41.7544H131.847C131.086 41.755 130.356 42.0731 129.818 42.6391C129.28 43.205 128.977 43.9724 128.977 44.7727V111.943C128.977 112.34 129.051 112.732 129.195 113.098C129.339 113.464 129.551 113.797 129.817 114.077C130.084 114.358 130.4 114.58 130.749 114.732C131.097 114.883 131.47 114.962 131.847 114.962H157.782C158.159 114.962 158.532 114.884 158.88 114.732C159.229 114.581 159.545 114.358 159.812 114.078C160.078 113.798 160.29 113.465 160.434 113.099C160.578 112.732 160.652 112.34 160.652 111.943V44.7706C160.651 43.9705 160.349 43.2033 159.811 42.6377C159.272 42.0721 158.543 41.7544 157.782 41.7544Z"/></mask><g mask="url(#mask0)"><path fill="#3D3C40" fill-opacity=".16" d="M129.639 110.417C129.639 109.392 130.47 108.562 131.494 108.562H158.208C159.233 108.562 160.064 109.392 160.064 110.417C160.064 112.467 158.402 114.129 156.352 114.129H133.35C131.3 114.129 129.639 112.467 129.639 110.417Z"/><ellipse cx="132.283" cy="55.673" fill="#3D3C40" fill-opacity=".24" rx="1.984" ry="2.088"/><rect width="16.535" height="1.392" x="136.252" y="54.977" fill="#3D3C40" fill-opacity=".24" rx=".696"/><rect width="21.827" height="1.392" x="136.252" y="57.76" fill="#3D3C40" fill-opacity=".24" rx=".696"/><rect width="17.858" height="1.392" x="136.252" y="60.544" fill="#3D3C40" fill-opacity=".24" rx=".696"/><rect width="19.843" height="1.392" x="136.252" y="63.328" fill="#3D3C40" fill-opacity=".24" rx=".696"/><ellipse cx="132.283" cy="68.895" fill="#3D3C40" fill-opacity=".24" rx="1.984" ry="2.088"/><rect width="16.535" height="1.392" x="136.252" y="68.199" fill="#3D3C40" fill-opacity=".24" rx=".696"/><rect width="21.827" height="1.392" x="136.252" y="70.982" fill="#3D3C40" fill-opacity=".24" rx=".696"/><rect width="17.858" height="1.392" x="136.252" y="73.766" fill="#3D3C40" fill-opacity=".24" rx=".696"/><rect width="19.843" height="1.392" x="136.252" y="76.55" fill="#3D3C40" fill-opacity=".24" rx=".696"/><ellipse cx="132.283" cy="82.117" fill="#3D3C40" fill-opacity=".24" rx="1.984" ry="2.088"/><rect width="16.535" height="1.392" x="136.252" y="81.421" fill="#3D3C40" fill-opacity=".24" rx=".696"/><rect width="21.827" height="1.392" x="136.252" y="84.205" fill="#3D3C40" fill-opacity=".24" rx=".696"/><rect width="17.858" height="1.392" x="136.252" y="86.988" fill="#3D3C40" fill-opacity=".24" rx=".696"/><rect width="19.843" height="1.392" x="136.252" y="89.772" fill="#3D3C40" fill-opacity=".24" rx=".696"/><ellipse cx="132.283" cy="95.339" fill="#3D3C40" fill-opacity=".24" rx="1.984" ry="2.088"/><rect width="16.535" height="1.392" x="136.252" y="94.643" fill="#3D3C40" fill-opacity=".24" rx=".696"/><rect width="21.827" height="1.392" x="136.252" y="97.427" fill="#3D3C40" fill-opacity=".24" rx=".696"/><rect width="17.858" height="1.392" x="136.252" y="100.21" fill="#3D3C40" fill-opacity=".24" rx=".696"/><rect width="19.843" height="1.392" x="136.252" y="102.994" fill="#3D3C40" fill-opacity=".24" rx=".696"/><rect width="34.394" height="11.134" x="126.992" y="40.363" fill="#145DBF"/><rect width="11.244" height="1.392" x="134.93" y="47.322" fill="#fff" opacity=".48" rx=".696"/><rect width="2.646" height="2.784" x="156.094" y="46.626" fill="#fff" opacity=".48" rx="1.323"/><rect width="2.646" height="2.784" x="130.961" y="46.626" fill="#fff" opacity=".48" rx="1.323"/></g></g><defs><filter id="filter0_f" width="145.575" height="121.107" x="-1.842" y="-1.72" color-interpolation-filters="sRGB" filterUnits="userSpaceOnUse"><feFlood flood-opacity="0" result="BackgroundImageFix"/><feBlend in="SourceGraphic" in2="BackgroundImageFix" mode="normal" result="shape"/><feGaussianBlur result="effect1_foregroundBlur" stdDeviation="2"/></filter><filter id="filter1_f" width="45.001" height="85.232" x="122.324" y="34.837" color-interpolation-filters="sRGB" filterUnits="userSpaceOnUse"><feFlood flood-opacity="0" result="BackgroundImageFix"/><feBlend in="SourceGraphic" in2="BackgroundImageFix" mode="normal" result="shape"/><feGaussianBlur result="effect1_foregroundBlur" stdDeviation="2"/></filter><clipPath id="clip0"><rect width="168" height="119" fill="#fff"/></clipPath><clipPath id="clip1"><rect width="127.272" height="76.55" fill="#fff" transform="translate(5.29102 4.87158)"/></clipPath></defs></svg>